<svg width="48" height="48" viewBox="0 0 48 48" fill="none" xmlns="http://www.w3.org/2000/svg">
  <circle cx="24" cy="24" r="24" fill="#4ECDC4"/>
  <path d="M24 8C16.268 8 10 14.268 10 22C10 29.732 16.268 36 24 36C31.732 36 38 29.732 38 22C38 14.268 31.732 8 24 8ZM30 26C30 28.761 27.761 31 25 31H23C20.239 31 18 28.761 18 26V22C18 19.239 20.239 17 23 17H25C27.761 17 30 19.239 30 22V26Z" fill="white"/>
  <path d="M26 20H22C21.448 20 21 20.448 21 21V27C21 27.552 21.448 28 22 28H26C26.552 28 27 27.552 27 27V21C27 20.448 26.552 20 26 20Z" fill="#4ECDC4"/>
</svg>